<?xml version="1.0" encoding="UTF-8"?>
<svg width="3710px" height="3710px" viewBox="0 0 3710 3710" version="1.1" xmlns="http://www.w3.org/2000/svg" xmlns:xlink="http://www.w3.org/1999/xlink">
    <title>20943859</title>
    <defs>
        <path d="M1200.42639,2800 C1146.59639,2800 1093.64639,2797.39 1041.98639,2792.2 C882.296391,2776.17 560.996391,2743.92 313.902391,2501.93 C313.005391,2501.05 312.130391,2500.2 311.237391,2499.31 L2186.30639,2499.31 C1890.32639,2702.68 1529.04639,2800 1200.42639,2800 M178.396391,2333.33 C-136.177609,1833.89 -18.101609,1024.31 402.060391,531.335 C461.701391,461.361 867.846391,0 1489.70639,0 C1501.22639,0 1512.79639,0.158 1524.46639,0.48 C1994.11639,13.438 2319.17639,284.547 2358.69639,318.305 C2408.60639,360.95 2518.57639,462.137 2616.49639,621.33 C2841.67639,987.4 2857.72639,1490.2 2685.63639,1896.32 L2697.57639,1071.46 C2697.57639,1047.88 2670.78639,1002.65 2621.53639,1002.65 C2619.70639,1002.65 2617.83639,1002.71 2615.94639,1002.84 L2353.08639,996.04 L2371.05639,626.89 L2102.66639,330.398 L658.736391,321.558 C658.566391,321.557 658.386391,321.557 658.216391,321.557 C611.006391,321.557 573.336391,361.076 575.676391,408.302 L601.946391,950.73 L263.318391,941.96 C262.348391,941.94 261.375391,941.93 260.408391,941.93 C230.726391,941.93 202.209391,953.68 181.141391,974.68 C159.387391,996.36 147.484391,1026 148.210391,1056.7 L178.396391,2333.33" id="path-1"></path>
        <linearGradient x1="104.903984%" y1="114.042026%" x2="32.7328778%" y2="33.4058466%" id="linearGradient-3">
            <stop stop-color="#DAE2FD" offset="0%"></stop>
            <stop stop-color="#E9EEFC" offset="100%"></stop>
        </linearGradient>
        <path d="M2484.84737,1557.38 L77.6063678,1557.38 C53.1223678,1557.38 33.0903678,1537.37 33.0903678,1512.91 L0.0313678129,114.77 C-0.694632187,84.07 11.2083678,54.43 32.9623678,32.75 C54.0303678,11.75 82.5473678,0 112.229368,0 C113.196368,0 114.169368,0 115.139368,0.03 L453.767368,8.8 L456.327368,61.68 L124.392368,52.78 C123.688368,52.76 122.982368,52.75 122.280368,52.75 C101.452368,52.75 81.4443678,61.01 66.6563678,75.76 C51.3713678,91.01 42.9643678,111.87 43.5053678,133.45 L77.0383678,1470.24 C77.0383678,1493.4 95.9903678,1512.36 119.154368,1512.36 L526.567368,1512.36 L526.837368,1517.85 L2133.65737,1517.85 L2133.92737,1512.36 L2426.79737,1512.36 C2449.96737,1512.36 2468.91737,1493.4 2468.91737,1470.24 L2487.81737,214.4 C2485.65737,140.92 2422.94737,113.2 2382.55737,113.2 C2381.40737,113.2 2380.27737,113.22 2379.16737,113.27 L2202.25737,108.52 L2204.90737,54.11 L2467.76737,60.91 C2469.65737,60.78 2471.52737,60.72 2473.35737,60.72 C2522.60737,60.72 2549.39737,105.95 2549.39737,129.53 L2529.36737,1512.91 C2529.36737,1537.37 2509.33737,1557.38 2484.84737,1557.38" id="path-4"></path>
        <linearGradient x1="58.8808707%" y1="66.1104751%" x2="36.5799533%" y2="25.2407415%" id="linearGradient-6">
            <stop stop-color="#08005D" offset="0%"></stop>
            <stop stop-color="#1A0F91" offset="100%"></stop>
        </linearGradient>
        <path d="M2383.31659,1459.61 L2090.44659,1459.61 L2156.98659,92.59 L2314.60659,96.82 C2314.79659,96.81 2315.48659,96.79 2316.60659,96.79 C2325.35659,96.79 2360.02659,98.27 2382.81659,120.1 C2396.57659,133.29 2403.60659,151.79 2403.71659,174.96 L2397.98659,565.04 C2397.93659,568.44 2400.65659,571.25 2404.06659,571.3 L2404.16659,571.3 C2407.52659,571.3 2410.27659,568.6 2410.32659,565.22 L2416.05659,175.02 C2415.93659,148.26 2407.62659,126.78 2391.34659,111.19 C2365.71659,86.63 2328.70659,84.42 2317.47659,84.42 C2316.03659,84.42 2315.01659,84.46 2314.50659,84.49 L2157.58659,80.28 L2158.77659,55.77 L2335.68659,60.52 C2336.79659,60.47 2337.92659,60.45 2339.07659,60.45 C2379.46659,60.45 2442.17659,88.17 2444.33659,161.65 L2425.43659,1417.49 C2425.43659,1440.65 2406.48659,1459.61 2383.31659,1459.61 M483.086589,1459.61 L75.6735893,1459.61 C52.5095893,1459.61 33.5575893,1440.65 33.5575893,1417.49 L0.0245893114,80.7 C-0.516410689,59.12 7.89058931,38.26 23.1755893,23.01 C37.9635893,8.26 57.9715893,0 78.7995893,0 C79.5015893,0 80.2075893,0 80.9115893,0.03 L412.846589,8.93 L483.086589,1459.61" id="path-7"></path>
        <linearGradient x1="89.4711677%" y1="29.3481422%" x2="4.63792056%" y2="73.8240252%" id="linearGradient-9">
            <stop stop-color="#4042E1" offset="0%"></stop>
            <stop stop-color="#4F52FF" offset="100%"></stop>
        </linearGradient>
        <path d="M5.654,121.55 L2832.394,121.55 C2835.504,121.55 2838.044,119.01 2838.044,115.9 L2838.044,5.65 C2838.044,2.55 2835.504,0 2832.394,0 L5.654,0 C2.545,0 -1.13686838e-13,2.55 -1.13686838e-13,5.65 L-1.13686838e-13,115.9 C-1.13686838e-13,119.01 2.545,121.55 5.654,121.55" id="path-10"></path>
        <linearGradient x1="48.7499101%" y1="47.7727034%" x2="49.9614629%" y2="49.9313589%" id="linearGradient-12">
            <stop stop-color="#08005D" offset="0%"></stop>
            <stop stop-color="#1A0F91" offset="100%"></stop>
        </linearGradient>
        <path d="M98.2537372,227.09054 C89.7537372,227.65054 81.8337372,223.69054 77.4337372,216.62054 L3.48373719,97.8705401 C-3.44626281,86.7505401 0.283737195,71.5005401 11.8237372,63.8305401 C23.3437372,56.1705401 38.2937372,58.9705401 45.2237372,70.0905401 L96.5037372,152.52054 L164.173737,14.7005401 C170.243737,2.33054008 184.833737,-3.33945992 196.753737,2.02054008 C208.663737,7.39054008 213.403737,21.7505401 207.343737,34.1105401 L119.893737,212.36054 C115.893737,220.52054 107.933737,226.13054 99.1137372,227.02054 C98.8237372,227.05054 98.5437372,227.07054 98.2537372,227.09054" id="path-13"></path>
        <linearGradient x1="35.0772269%" y1="-114.967028%" x2="44.200082%" y2="-30.0979935%" id="linearGradient-15">
            <stop stop-color="#E0463C" offset="0%"></stop>
            <stop stop-color="#E95F5A" offset="100%"></stop>
        </linearGradient>
        <path d="M8.64329629,348.988054 C4.03229629,348.988054 0.227296288,345.325612 0.0852962878,340.685612 C-0.00870371223,337.575612 -1.98770371,263.525612 19.8122963,184.445612 C49.1772963,77.9456122 108.068296,14.8156122 190.123296,1.90561217 C230.323296,-4.43438783 266.153296,5.06561217 296.613296,30.1056122 C395.873296,111.755612 405.313296,330.815612 405.673296,340.095612 C405.853296,344.825612 402.163296,348.805612 397.433296,348.988054 C392.673296,349.095612 388.733296,345.475612 388.553296,340.745612 C388.463296,338.555612 379.043296,120.075612 285.713296,43.3256122 C259.203296,21.5356122 227.943296,13.2856122 192.783296,18.8256122 C10.4102963,47.5356122 17.1222963,337.235612 17.2122963,340.165612 C17.3562963,344.895612 13.6382963,348.845612 8.90929629,348.988054 L8.64329629,348.988054" id="path-16"></path>
        <linearGradient x1="116.876294%" y1="-67.6105587%" x2="22.2713426%" y2="131.49099%" id="linearGradient-18">
            <stop stop-color="#E0463C" offset="0%"></stop>
            <stop stop-color="#E95F5A" offset="100%"></stop>
        </linearGradient>
        <path d="M0.527711819,1024.41 L147.730712,9.3 L700.718712,0 L878.948712,1080.83 L48.4107118,1080.83 C18.8677118,1080.83 -3.78328818,1054.14 0.527711819,1024.41" id="path-19"></path>
        <linearGradient x1="73.7445651%" y1="17.6549411%" x2="13.9287698%" y2="125.450802%" id="linearGradient-21">
            <stop stop-color="#FF928E" offset="0%"></stop>
            <stop stop-color="#FD6F61" offset="100%"></stop>
        </linearGradient>
        <path d="M107.39,9.3 L0,0 L178.23,1080.83 L284.85,1080.83 C306.47,1080.83 322.62,1060.63 318.22,1039.1 L107.39,9.3" id="path-22"></path>
        <linearGradient x1="72.9370344%" y1="24.8864114%" x2="57.0320881%" y2="42.0069576%" id="linearGradient-24">
            <stop stop-color="#FF928E" offset="0%"></stop>
            <stop stop-color="#FD6F61" offset="100%"></stop>
        </linearGradient>
        <path d="M397.107937,348.991687 C392.527937,348.991687 388.727937,345.371687 388.547937,340.751687 C388.467937,338.551687 379.037937,120.071687 285.707937,43.3316873 C259.207937,21.5416873 227.947937,13.2916873 192.786937,18.8316873 C10.5549371,47.5116873 17.1239371,337.241687 17.2119371,340.161687 C17.3529371,344.891687 13.6369371,348.841687 8.90793712,348.981687 C4.12793712,349.181687 0.230937119,345.411687 0.0849371195,340.681687 C-0.00806288054,337.571687 -1.98806288,263.521687 19.8139371,184.451687 C49.1769371,77.9416873 108.068937,14.8216873 190.123937,1.90168731 C230.330937,-4.42831269 266.157937,5.06168731 296.607937,30.1116873 C395.877937,111.761687 405.317937,330.811687 405.667937,340.101687 C405.847937,344.831687 402.167937,348.801687 397.437937,348.981687 C397.327937,348.991687 397.217937,348.991687 397.107937,348.991687" id="path-25"></path>
        <linearGradient x1="120.869839%" y1="-76.0158014%" x2="26.2633954%" y2="123.093701%" id="linearGradient-27">
            <stop stop-color="#E0463C" offset="0%"></stop>
            <stop stop-color="#E95F5A" offset="100%"></stop>
        </linearGradient>
        <path d="M5.97219324,0 C42.2121932,3.13 105.092193,8.22 154.672193,10.4 C184.472193,11.71 201.632193,8.8 211.512193,4.84 C211.492193,5.95 211.462193,7.01 211.422193,7.98 C211.192193,13.2 206.952193,17.37 201.682193,17.67 C108.002193,22.9 33.4921932,19.48 6.97219324,17.86 C1.49219324,17.53 -1.77780676,11.57 1.02219324,6.89 C2.43219324,4.55 4.12219324,2.26 5.97219324,0" id="path-28"></path>
        <linearGradient x1="100%" y1="49.9930257%" x2="-0.000854210922%" y2="49.9930257%" id="linearGradient-30">
            <stop stop-color="#4042E1" offset="0%"></stop>
            <stop stop-color="#4F52FF" offset="100%"></stop>
        </linearGradient>
        <path d="M148.7,83.57 C99.12,81.39 36.24,76.3 4.54747351e-13,73.17 C35.63,29.46 148.7,0 148.7,0 L180.64,0 C202.6,31.66 205.78,61.81 205.54,78.01 C195.66,81.97 178.5,84.88 148.7,83.57" id="path-31"></path>
        <linearGradient x1="99.9990095%" y1="50.0071379%" x2="-0.00145948445%" y2="50.0071379%" id="linearGradient-33">
            <stop stop-color="#08005D" offset="0%"></stop>
            <stop stop-color="#1A0F91" offset="100%"></stop>
        </linearGradient>
        <path d="M59.57,0 L56.58,59.14 C56.26,65.54 51.47,70.92 45.05,71.84 C38.67,72.75 30.13,72.87 21.06,69.85 C15.49,67.99 11.35,63.3 10.32,57.57 L0,0 L59.57,0" id="path-34"></path>
        <linearGradient x1="100%" y1="49.9951534%" x2="-0.0149404062%" y2="49.9951534%" id="linearGradient-36">
            <stop stop-color="#FDBAB9" offset="0%"></stop>
            <stop stop-color="#FF928E" offset="100%"></stop>
        </linearGradient>
        <path d="M54.66,24.66 C70.37,21.83 77.48,11.28 80.47,0 C80.48,0.1 80.5,0.2 80.52,0.3 C82.84,12.2 77.48,24.53 66.76,30.4 C53.81,37.48 39.65,38.69 28.66,38.11 C16.86,37.48 6.04,31.17 0.09,21.08 L4.54747351e-13,20.92 C11.84,28.49 28.46,29.39 54.66,24.66" id="path-37"></path>
        <linearGradient x1="99.995181%" y1="50.0031999%" x2="-0.00666223291%" y2="50.0031999%" id="linearGradient-39">
            <stop stop-color="#4042E1" offset="0%"></stop>
            <stop stop-color="#4F52FF" offset="100%"></stop>
        </linearGradient>
        <path d="M19.0765317,0.00765219891 L45.4165317,0.00765219891 C85.5365317,-1.0523478 110.726532,108.297652 118.976532,150.647652 C115.986532,161.927652 108.876532,172.477652 93.1665317,175.307652 C66.9665317,180.037652 50.3465317,179.137652 38.5065317,171.567652 C16.8365317,134.707652 6.08653174,80.7276522 0.926531741,49.2176522 C-4.95346826,13.3876522 19.0765317,0.00765219891 19.0765317,0.00765219891" id="path-40"></path>
        <linearGradient x1="100%" y1="49.9999921%" x2="0.00212793351%" y2="49.9999921%" id="linearGradient-42">
            <stop stop-color="#08005D" offset="0%"></stop>
            <stop stop-color="#1A0F91" offset="100%"></stop>
        </linearGradient>
        <path d="M56.11,0 L70.73,58.17 C72.52,65.3 69.11,72.68 62.52,76.06 C54.34,80.26 42.82,84.67 32.23,83.4 C27.25,82.8 23.12,79.29 21.47,74.6 L0,13.4 L56.11,0" id="path-43"></path>
        <linearGradient x1="99.9959509%" y1="49.9989162%" x2="-0.00421330662%" y2="49.9989162%" id="linearGradient-45">
            <stop stop-color="#FDBAB9" offset="0%"></stop>
            <stop stop-color="#FF928E" offset="100%"></stop>
        </linearGradient>
        <path d="M4.54747351e-13,16.5 C4.54747351e-13,16.5 130.69,833.43 128.54,837.92 C128.54,837.92 164.63,854.33 203.98,840.02 C203.98,840.02 192.17,403.31 164.47,235.86 C164.47,235.86 387.52,626.19 458.35,820.69 C458.35,820.69 495.29,816.28 525.87,796.16 C525.87,796.16 285.72,93.58 221.64,0 L4.54747351e-13,16.5" id="path-46"></path>
        <linearGradient x1="58.0297958%" y1="120.224204%" x2="39.896517%" y2="-9.41156083%" id="linearGradient-48">
            <stop stop-color="#08005D" offset="0%"></stop>
            <stop stop-color="#1A0F91" offset="100%"></stop>
        </linearGradient>
        <path d="M88.6465617,92.9661652 C89.3465617,92.9661652 90.0465617,92.7761652 90.6865617,92.3761652 C92.4965357,91.2461652 93.0365617,88.8661652 91.9065617,87.0561652 L43.0765617,9.0461652 C42.5065617,8.1461652 41.5965617,7.5161652 40.5665617,7.3061652 L4.61656172,0.0761652036 C2.51656172,-0.343834796 0.496561715,1.0161652 0.0765617151,3.0961652 C-0.343438285,5.1861652 1.00656172,7.2261652 3.09656172,7.6461652 L37.4065617,14.5461652 L85.3665617,91.1461652 C86.0965617,92.3161652 87.3565617,92.9661652 88.6465617,92.9661652" id="path-49"></path>
        <linearGradient x1="347.424882%" y1="-418.145498%" x2="-41.3177108%" y2="193.731951%" id="linearGradient-51">
            <stop stop-color="#CA226C" offset="0%"></stop>
            <stop stop-color="#4B236C" offset="100%"></stop>
        </linearGradient>
        <path d="M0.92968062,-4.54747351e-13 C0.92968062,-4.54747351e-13 89.1196806,19.45 142.759681,44.22 C153.409681,49.14 161.909681,57.74 166.749681,68.34 C182.789681,103.48 230.789681,191.6 323.869681,233.65 C310.459681,251.44 288.879681,288.45 279.479681,350.65 C223.569681,309.04 175.309681,239.55 152.139681,125.59 C152.139681,125.59 134.489681,135.18 112.479681,124.49 C100.849681,118.84 87.4296806,110.83 77.3496806,104.53 C67.2996806,98.26 59.8196806,88.5 56.9196806,77.1 C53.0796806,62.05 55.3396806,48.82 55.3396806,34.62 L10.0096806,20.57 C10.0096806,20.57 -3.62031938,15.43 0.92968062,-4.54747351e-13" id="path-52"></path>
        <linearGradient x1="47.082757%" y1="30.8113503%" x2="121.36378%" y2="135.439612%" id="linearGradient-54">
            <stop stop-color="#FDBAB9" offset="0%"></stop>
            <stop stop-color="#FF928E" offset="100%"></stop>
        </linearGradient>
        <path d="M0,123.021313 C9.4,60.8213128 30.98,23.8113128 44.39,6.02131283 C102.21,32.1513128 177.43,40.5013128 273.21,7.31131283 C282.04,4.25131283 291.25,2.46131283 300.58,1.91131283 C351.57,-1.07868717 519.6,-6.53868717 658.64,39.4013128 C687.9,49.0713128 711.6,70.7013128 723.81,98.7313128 C761.42,185.041313 822.31,381.601313 653.27,480.841313 C640.28,448.601313 625.29,422.681313 612.48,403.631313 C639.7,357.721313 647.76,295.001313 599.45,213.331313 C564.23,308.451313 547.7,447.231313 544.25,508.651313 C543.11,528.871313 546.66,549.061313 554.59,567.721313 L555.46,569.761313 C557.16,573.761313 554.82,578.351313 550.55,579.311313 C455.39,600.681313 356.41,594.881313 326.84,592.431313 C321.56,592.001313 317.17,588.221313 315.96,583.121313 C269.69,388.131313 269.58,255.121313 280.91,171.041313 C237.62,180.721313 105.25,201.361313 0,123.021313" id="path-55"></path>
        <linearGradient x1="172.408377%" y1="-4.99238561%" x2="66.8433193%" y2="38.0897833%" id="linearGradient-57">
            <stop stop-color="#FF928E" offset="0%"></stop>
            <stop stop-color="#FD6F61" offset="100%"></stop>
        </linearGradient>
        <path d="M3.86381254,127.553743 C5.77381254,127.553743 7.43381254,126.133743 7.69381254,124.193743 C18.5538125,42.1037427 40.6938125,6.27374267 40.9038125,5.92374267 C42.0438125,4.12374267 41.5138125,1.73374267 39.7138125,0.593742669 C37.9138125,-0.536257331 35.5338125,-0.00625733129 34.3938125,1.78374267 C33.4438125,3.27374267 11.1638125,39.1437427 0.0338125371,123.183743 C-0.246187463,125.293743 1.24381254,127.233743 3.35381254,127.513743 C3.53381254,127.543743 3.69381254,127.553743 3.86381254,127.553743" id="path-58"></path>
        <linearGradient x1="0.00846304069%" y1="49.9974688%" x2="100.003804%" y2="49.9974688%" id="linearGradient-60">
            <stop stop-color="#E0463C" offset="0%"></stop>
            <stop stop-color="#E95F5A" offset="100%"></stop>
        </linearGradient>
        <path d="M94.7386826,0 C94.7386826,0 104.368683,101.79 112.848683,131.9 C114.128683,136.47 112.148683,141.29 107.998683,143.66 C93.6086826,151.88 59.1086826,165.29 11.9086826,142.16 C4.25868261,138.41 -0.331317387,130.44 0.0186826126,122 L4.17868261,23.64 L94.7386826,0" id="path-61"></path>
        <linearGradient x1="60.6019242%" y1="147.820071%" x2="46.072267%" y2="43.3631767%" id="linearGradient-63">
            <stop stop-color="#FDBAB9" offset="0%"></stop>
            <stop stop-color="#FF928E" offset="100%"></stop>
        </linearGradient>
        <path d="M34.799273,0 C34.799273,0 4.00927302,70.73 1.93927302,107.86 C-0.120726977,144.99 -8.12072698,169.08 34.799273,176.55 C77.729273,184.03 113.889273,162.64 133.489273,125.66 C133.489273,125.66 164.179273,68.68 157.299273,45.34 C150.409273,22 34.799273,0 34.799273,0" id="path-64"></path>
        <linearGradient x1="24.6267087%" y1="34.9708967%" x2="112.542689%" y2="110.623967%" id="linearGradient-66">
            <stop stop-color="#FDBAB9" offset="0%"></stop>
            <stop stop-color="#FF928E" offset="100%"></stop>
        </linearGradient>
        <path d="M123.914982,176.283803 L121.464982,175.213803 C118.354982,173.833803 117.024982,170.133803 118.584982,167.113803 C124.644982,155.423803 136.444982,128.613803 121.194982,122.363803 C101.554982,114.303803 23.7249817,98.4338032 6.93498171,70.8238032 C-9.20501829,44.2838032 5.09498171,10.0238032 26.5849817,0.283803173 C28.0249817,-0.376196827 29.7249817,0.143803173 30.4549817,1.54380317 L32.2449817,4.93380317 C33.4749817,7.25380317 36.9049817,6.89380317 37.6349817,4.37380317 C38.3249817,1.95380317 41.5449817,1.49380317 42.8849817,3.62380317 C48.0449817,11.8838032 61.9749817,25.2838032 99.2449817,32.1538032 C152.194982,41.9338032 187.214982,63.3638032 188.084982,99.9538032 C188.134982,102.283803 190.614982,103.573803 192.594982,102.363803 C196.504982,99.9838032 202.764982,98.8638032 211.124982,105.893803 C225.674982,118.123803 219.724982,149.843803 187.834982,175.943803 C186.324982,177.183803 186.334982,179.543803 187.974982,180.613803 C193.754982,184.373803 202.374982,193.333803 180.044982,205.263803 C156.954982,217.613803 139.704982,216.593803 133.064982,215.503803 C131.414982,215.233803 130.354982,213.633803 130.714982,211.993803 L137.804982,179.833803 C138.204982,178.013803 136.814982,176.283803 134.954982,176.283803 L123.914982,176.283803" id="path-67"></path>
        <linearGradient x1="71.9735551%" y1="15.9943699%" x2="-3.00811136%" y2="111.41524%" id="linearGradient-69">
            <stop stop-color="#08005D" offset="0%"></stop>
            <stop stop-color="#1A0F91" offset="100%"></stop>
        </linearGradient>
        <path d="M0,34.7580641 C0,34.7580641 11.75,-10.4219359 32.01,2.23806412 C52.27,14.9080641 21.5,52.8680641 5.21,54.5580641 L0,34.7580641" id="path-70"></path>
        <linearGradient x1="-62.6200037%" y1="-68.4995637%" x2="166.179449%" y2="178.371366%" id="linearGradient-72">
            <stop stop-color="#FDBAB9" offset="0%"></stop>
            <stop stop-color="#FF928E" offset="100%"></stop>
        </linearGradient>
        <path d="M56.3310804,71.8464825 C57.1810804,71.8464825 58.0510804,71.5664825 58.7610804,70.9764825 C60.4110804,69.6364825 60.6610804,67.2064825 59.3210804,65.5464825 C55.9810804,61.4464825 26.3910804,25.2664825 14.9910804,18.8264825 C10.8410804,16.4764825 8.37108042,14.0564825 7.84108042,11.8264825 C7.59108042,10.7564825 7.76108042,9.5564825 8.36108042,8.1964825 L43.1310804,15.1664825 L62.8310804,32.0664825 C64.4410804,33.4564825 66.8910804,33.2764825 68.2710804,31.6564825 C69.6610804,30.0364825 69.4810804,27.5964825 67.8610804,26.2064825 L47.3910804,8.6464825 C46.8910804,8.2164825 46.2910804,7.9264825 45.6410804,7.7864825 L7.14108042,0.0764825026 C5.60108042,-0.233517497 4.05108042,0.416482503 3.18108042,1.7064825 C0.361080419,5.8864825 -0.568919581,9.7864825 0.331080419,13.5964825 C1.39108042,18.1064825 4.94108042,22.0164825 11.1910804,25.5464825 C19.7710804,30.3864825 44.5210804,59.5864825 53.3310804,70.4264825 C54.0910804,71.3564825 55.2110804,71.8464825 56.3310804,71.8464825" id="path-73"></path>
        <linearGradient x1="0.00112768159%" y1="50.0043722%" x2="100.003791%" y2="50.0043722%" id="linearGradient-75">
            <stop stop-color="#FF928E" offset="0%"></stop>
            <stop stop-color="#FD6F61" offset="100%"></stop>
        </linearGradient>
        <path d="M136.11,126.13 L0,127.81 L47.64,82.97 C59.48,71.83 77.55,70.02 91.22,78.89 C99.22,84.08 107.9,91.12 115.42,100.45 C115.42,100.45 200.32,69.43 241.48,0 C254.29,19.05 269.28,44.97 282.27,77.21 C245.38,98.87 197.55,115.9 136.11,126.13" id="path-76"></path>
        <linearGradient x1="-12.7147766%" y1="12.3121138%" x2="30.9335034%" y2="41.9574346%" id="linearGradient-78">
            <stop stop-color="#FDBAB9" offset="0%"></stop>
            <stop stop-color="#FF928E" offset="100%"></stop>
        </linearGradient>
        <path d="M361.730011,30.9523734 C361.470011,30.9723734 361.210011,30.9723734 360.940011,30.9723734 L15.4500108,30.6023734 C6.91001082,30.5923734 -0.00998917549,23.7323734 0,15.2823734 C0.0100108245,6.83237339 6.97001082,-0.147626611 15.4800108,0.00237338944 L360.970011,0.372373389 C369.510011,0.382373389 376.430011,7.24237339 376.420022,15.6923734 C376.410011,23.8723734 369.900011,30.5523734 361.730011,30.9523734" id="path-79"></path>
        <linearGradient x1="111.665131%" y1="48.3353542%" x2="38.8111425%" y2="50.3014345%" id="linearGradient-81">
            <stop stop-color="#08005D" offset="0%"></stop>
            <stop stop-color="#1A0F91" offset="100%"></stop>
        </linearGradient>
        <path d="M23.0010082,0 L310.721008,0 C331.951008,0 351.271008,12.12 360.321008,31.12 L493.341008,310.19 L135.771008,310.19 C122.091008,310.19 109.801008,301.92 104.781008,289.33 L1.63100817,31.09 C-4.32899183,16.17 6.78100817,0 23.0010082,0" id="path-82"></path>
        <linearGradient x1="73.1767686%" y1="35.4766647%" x2="33.380158%" y2="61.9236745%" id="linearGradient-84">
            <stop stop-color="#08005D" offset="0%"></stop>
            <stop stop-color="#1A0F91" offset="100%"></stop>
        </linearGradient>
        <path d="M45.942261,28.5121316 C52.172261,47.6821316 47.562261,66.2921316 35.652261,70.0921316 C23.732261,73.8821316 9.01226104,61.4221316 2.78226104,42.2621316 C-3.45773896,23.0921316 1.15226104,4.47213162 13.072261,0.682131621 C24.982261,-3.11786838 39.702261,9.34213162 45.942261,28.5121316" id="path-85"></path>
        <linearGradient x1="86.7905554%" y1="-30.4898144%" x2="0.464746736%" y2="158.351469%" id="linearGradient-87">
            <stop stop-color="#4042E1" offset="0%"></stop>
            <stop stop-color="#4F52FF" offset="100%"></stop>
        </linearGradient>
    </defs>
    <g id="20943859" stroke="none" stroke-width="1" fill="none" fill-rule="evenodd">
        <g id="Group-5" transform="translate(449.9936, 455)">
            <mask id="mask-2" fill="white">
                <use xlink:href="#path-1"></use>
            </mask>
            <g id="Clip-4"></g>
            <path d="M1200.42639,2800 C1146.59639,2800 1093.64639,2797.39 1041.98639,2792.2 C882.296391,2776.17 560.996391,2743.92 313.902391,2501.93 C313.005391,2501.05 312.130391,2500.2 311.237391,2499.31 L2186.30639,2499.31 C1890.32639,2702.68 1529.04639,2800 1200.42639,2800 M178.396391,2333.33 C-136.177609,1833.89 -18.101609,1024.31 402.060391,531.335 C461.701391,461.361 867.846391,0 1489.70639,0 C1501.22639,0 1512.79639,0.158 1524.46639,0.48 C1994.11639,13.438 2319.17639,284.547 2358.69639,318.305 C2408.60639,360.95 2518.57639,462.137 2616.49639,621.33 C2841.67639,987.4 2857.72639,1490.2 2685.63639,1896.32 L2697.57639,1071.46 C2697.57639,1047.88 2670.78639,1002.65 2621.53639,1002.65 C2619.70639,1002.65 2617.83639,1002.71 2615.94639,1002.84 L2353.08639,996.04 L2371.05639,626.89 L2102.66639,330.398 L658.736391,321.558 C658.566391,321.557 658.386391,321.557 658.216391,321.557 C611.006391,321.557 573.336391,361.076 575.676391,408.302 L601.946391,950.73 L263.318391,941.96 C262.348391,941.94 261.375391,941.93 260.408391,941.93 C230.726391,941.93 202.209391,953.68 181.141391,974.68 C159.387391,996.36 147.484391,1026 148.210391,1056.7 L178.396391,2333.33" id="Fill-3" fill="url(#linearGradient-3)" mask="url(#mask-2)"></path>
        </g>
        <g id="Group-8" transform="translate(598.1726, 1396.93)">
            <mask id="mask-5" fill="white">
                <use xlink:href="#path-4"></use>
            </mask>
            <g id="Clip-7"></g>
            <path d="M2484.84737,1557.38 L77.6063678,1557.38 C53.1223678,1557.38 33.0903678,1537.37 33.0903678,1512.91 L0.0313678129,114.77 C-0.694632187,84.07 11.2083678,54.43 32.9623678,32.75 C54.0303678,11.75 82.5473678,0 112.229368,0 C113.196368,0 114.169368,0 115.139368,0.03 L453.767368,8.8 L456.327368,61.68 L124.392368,52.78 C123.688368,52.76 122.982368,52.75 122.280368,52.75 C101.452368,52.75 81.4443678,61.01 66.6563678,75.76 C51.3713678,91.01 42.9643678,111.87 43.5053678,133.45 L77.0383678,1470.24 C77.0383678,1493.4 95.9903678,1512.36 119.154368,1512.36 L526.567368,1512.36 L526.837368,1517.85 L2133.65737,1517.85 L2133.92737,1512.36 L2426.79737,1512.36 C2449.96737,1512.36 2468.91737,1493.4 2468.91737,1470.24 L2487.81737,214.4 C2485.65737,140.92 2422.94737,113.2 2382.55737,113.2 C2381.40737,113.2 2380.27737,113.22 2379.16737,113.27 L2202.25737,108.52 L2204.90737,54.11 L2467.76737,60.91 C2469.65737,60.78 2471.52737,60.72 2473.35737,60.72 C2522.60737,60.72 2549.39737,105.95 2549.39737,129.53 L2529.36737,1512.91 C2529.36737,1537.37 2509.33737,1557.38 2484.84737,1557.38" id="Fill-6" fill="url(#linearGradient-6)" mask="url(#mask-5)"></path>
        </g>
        <g id="Group-11" transform="translate(641.6534, 1449.68)">
            <mask id="mask-8" fill="white">
                <use xlink:href="#path-7"></use>
            </mask>
            <g id="Clip-10"></g>
            <path d="M2383.31659,1459.61 L2090.44659,1459.61 L2156.98659,92.59 L2314.60659,96.82 C2314.79659,96.81 2315.48659,96.79 2316.60659,96.79 C2325.35659,96.79 2360.02659,98.27 2382.81659,120.1 C2396.57659,133.29 2403.60659,151.79 2403.71659,174.96 L2397.98659,565.04 C2397.93659,568.44 2400.65659,571.25 2404.06659,571.3 L2404.16659,571.3 C2407.52659,571.3 2410.27659,568.6 2410.32659,565.22 L2416.05659,175.02 C2415.93659,148.26 2407.62659,126.78 2391.34659,111.19 C2365.71659,86.63 2328.70659,84.42 2317.47659,84.42 C2316.03659,84.42 2315.01659,84.46 2314.50659,84.49 L2157.58659,80.28 L2158.77659,55.77 L2335.68659,60.52 C2336.79659,60.47 2337.92659,60.45 2339.07659,60.45 C2379.46659,60.45 2442.17659,88.17 2444.33659,161.65 L2425.43659,1417.49 C2425.43659,1440.65 2406.48659,1459.61 2383.31659,1459.61 M483.086589,1459.61 L75.6735893,1459.61 C52.5095893,1459.61 33.5575893,1440.65 33.5575893,1417.49 L0.0245893114,80.7 C-0.516410689,59.12 7.89058931,38.26 23.1755893,23.01 C37.9635893,8.26 57.9715893,0 78.7995893,0 C79.5015893,0 80.2075893,0 80.9115893,0.03 L412.846589,8.93 L483.086589,1459.61" id="Fill-9" fill="url(#linearGradient-9)" mask="url(#mask-8)"></path>
        </g>
        <path d="M3042.15,2270.56 L3042.06,2270.56 C3038.65,2270.51 3035.93,2267.71 3035.98,2264.29 L3037.47,2162.45 C3037.52,2159.07 3040.28,2156.37 3043.64,2156.37 L3043.73,2156.37 C3047.14,2156.42 3049.87,2159.22 3049.81,2162.63 L3048.32,2264.48 C3048.27,2267.85 3045.52,2270.56 3042.15,2270.56" id="Fill-12" fill="#91B3FA"></path>
        <path d="M3045.82,2020.98 L3045.72,2020.98 C3042.31,2020.93 3039.59,2018.12 3039.64,2014.72 L3045.37,1624.64 C3045.26,1601.47 3038.23,1582.97 3024.47,1569.78 C2998.77,1545.16 2957.97,1546.42 2956.26,1546.5 L2235.58,1527.17 C2232.17,1527.09 2229.48,1524.25 2229.56781,1520.84 C2229.66,1517.43 2232.28,1514.53 2235.91,1514.84 L2956.16,1534.17 C2960.64,1533.9 3004.08,1533.15 3033,1560.87 C3049.28,1576.46 3057.59,1597.94 3057.71,1624.7 L3051.98,2014.9 C3051.93,2018.28 3049.18,2020.98 3045.82,2020.98" id="Fill-13" fill="#91B3FA"></path>
        <g id="Group-16" transform="translate(435.976, 2947.6)">
            <mask id="mask-11" fill="white">
                <use xlink:href="#path-10"></use>
            </mask>
            <g id="Clip-15"></g>
            <path d="M5.654,121.55 L2832.394,121.55 C2835.504,121.55 2838.044,119.01 2838.044,115.9 L2838.044,5.65 C2838.044,2.55 2835.504,0 2832.394,0 L5.654,0 C2.545,0 -1.13686838e-13,2.55 -1.13686838e-13,5.65 L-1.13686838e-13,115.9 C-1.13686838e-13,119.01 2.545,121.55 5.654,121.55" id="Fill-14" fill="url(#linearGradient-12)" mask="url(#mask-11)"></path>
        </g>
        <path d="M2552.66,785.398 L1108.73,776.556419 C1061.28,776.268 1023.32,815.905 1025.67,863.302 L1125.01,2914.78 L2731.83,2914.78 L2821.05,1081.89 L2552.66,785.398" id="Fill-17" fill="#91B3FA"></path>
        <path d="M2612.7,1073.11 C2565.66,1071.45 2529.5,1030.91 2533.21,983.994 L2548.69,788.101 L2821.33,1080.69 L2612.7,1073.11" id="Fill-18" fill="#7D97F4"></path>
        <path d="M1350.83,2087.98 C1551,2084.74 2319.37,2071.48 2513.39,2068.13 C2537.87,2067.71 2557.99,2082.54 2557.86063,2100.86 C2557.74,2118.3 2539.2,2132.49 2515.91,2132.97 L1354.07,2157.02 C1331.69,2157.49 1312.45,2145.11 1309.69,2128.47 L1308.99,2124.27 C1305.84,2105.24 1325.24,2088.39 1350.83,2087.98" id="Fill-19" fill="#BDD0FB"></path>
        <path d="M1336.82,2291.65 L1336.82,2291.65 C1340.19,2295.93 1346.37,2298.55 1353,2298.49 L2150.72,2291.16 C2160.74,2291.07 2168.79,2285 2168.85,2277.5 L2169.13022,2238.15 C2169.18,2230.33 2160.55,2224.01 2150.11,2224.23 L1374.57,2240.44 C1340.03,2241.16 1319.28,2269.31 1336.82,2291.65" id="Fill-20" fill="#BDD0FB"></path>
        <path d="M1346.98,2443.97 C1547.14,2440.73 2315.51,2427.47 2509.54,2424.12 C2534.01,2423.7 2554.13,2438.52 2554.00063,2456.85 C2553.88,2474.29 2535.35,2488.47 2512.05,2488.96 L1350.21,2513.01 C1327.83,2513.48 1308.6,2501.1 1305.83,2484.46 L1305.14,2480.25 C1301.98,2461.23 1321.38,2444.38 1346.98,2443.97" id="Fill-21" fill="#BDD0FB"></path>
        <path d="M1332.97,2647.63 L1332.97,2647.63 C1336.33,2651.92 1342.52,2654.53 1349.15,2654.47 L2146.87,2647.15 C2156.89,2647.06 2164.94,2640.99 2164.99,2633.49 L2165.27022,2594.13 C2165.32,2586.31 2156.69,2580 2146.25,2580.22 L1370.71,2596.43 C1336.17,2597.15 1315.42,2625.29 1332.97,2647.63" id="Fill-22" fill="#BDD0FB"></path>
        <path d="M2168.07,1677.75 C2167.96,1677.75 2167.85,1677.75 2167.74,1677.75 L1717.41,1671.71 C1709.62,1671.6 1702.74,1666.56 1700.44,1659.24 L1564.23,1223.98 L1488.96,1225.76 C1488.79,1225.76 1488.63,1225.76 1488.46,1225.76 C1479.25,1225.76 1471.86,1219.63 1471.86,1210.37 C1471.86,1200.94 1479.51,1194.37 1488.96,1194.12 L1577.04,1191.81 C1577.2,1191.8 1577.36,1191.8 1577.52,1191.8 C1584.95,1191.8 1591.46,1196.35 1593.67,1203.37 L1609.88,1254.85 L2251.46,1241.4 C2251.69,1241.39 2251.91,1241.39 2252.14,1241.39 C2258.93,1241.39 2265.29,1243.57 2269.39,1248.62 C2273.63,1253.83 2274.96,1260.41 2272.99,1266.81 L2197.16,1511.98 C2194.41,1520.89 2185.76,1527.33 2175.93,1527.33 C2175.92,1527.33 2175.91,1527.33 2175.9,1527.33 L1695.47,1526.6 L1730.55,1639.61 L2167.74,1644.32 C2178.31,1644.44 2186.89,1651.28 2186.89,1661.27 C2186.89,1671.16 2178.49,1677.75 2168.07,1677.75" id="Fill-23" fill="#E9F0FE"></path>
        <path d="M1785.13,1829.95 C1784.52,1829.95 1783.91,1829.94 1783.29,1829.92 C1746.24,1828.95 1716.26,1798.86 1716.26,1762.84 C1716.26,1727.17 1745.65,1698.55 1782.2,1698.55 C1782.56,1698.55 1782.93,1698.55 1783.29,1698.55 C1820.57,1699.13 1851.06,1729.24 1851.06,1765.66 C1851.06,1801.48 1821.57,1829.95 1785.13,1829.95 M1782.69,1733.58 C1765.65,1733.58 1751.92,1746.92 1751.92,1763.58 C1751.92,1780.44 1765.97,1794.49 1783.29,1794.89 C1783.55,1794.9 1783.8,1794.9 1784.06,1794.9 C1801.07,1794.9 1814.82,1781.59 1814.82,1764.9 C1814.82,1747.95 1800.66,1733.91 1783.29,1733.59 C1783.09,1733.58 1782.89,1733.58 1782.69,1733.58" id="Fill-24" fill="#E9F0FE"></path>
        <path d="M2085.46,1837.84 C2084.81,1837.84 2084.15,1837.83 2083.48,1837.81 C2044.6,1836.79 2013.14,1805.94 2013.14,1769.04 C2013.14,1732.52 2043.96,1703.21 2082.31,1703.21 C2082.7,1703.21 2083.09,1703.22 2083.48,1703.22 C2122.61,1703.83 2154.63,1734.69 2154.63,1772 C2154.63,1808.69 2123.69,1837.84 2085.46,1837.84 M2082.84,1739.11 C2064.96,1739.11 2050.56,1752.76 2050.56,1769.83 C2050.56,1787.1 2065.31,1801.49 2083.48,1801.92 C2083.76,1801.93 2084.03,1801.93 2084.31,1801.93 C2102.16,1801.93 2116.58,1788.31 2116.58,1771.21 C2116.58,1753.85 2101.71,1739.45 2083.48,1739.11 C2083.27,1739.11 2083.05,1739.11 2082.84,1739.11" id="Fill-25" fill="#E9F0FE"></path>
        <path d="M1901.96,1991.1 C1598.18,1991.1 1351.05,1743.96 1351.05,1440.19 C1351.05,1136.41 1598.18,889.275 1901.96,889.275 C2205.73,889.275 2452.87,1136.41 2452.87,1440.19 C2452.87,1743.96 2205.73,1991.1 1901.96,1991.1 M1901.96,916.689 C1613.3,916.689 1378.46,1151.53 1378.46,1440.19 C1378.46,1728.85 1613.3,1963.69 1901.96,1963.69 C2190.62,1963.69 2425.46,1728.85 2425.46,1440.19 C2425.46,1151.53 2190.62,916.689 1901.96,916.689" id="Fill-26" fill="#EAF1FE"></path>
        <g id="Group-29" transform="translate(1810.9263, 1281.6695)">
            <mask id="mask-14" fill="white">
                <use xlink:href="#path-13"></use>
            </mask>
            <g id="Clip-28"></g>
            <path d="M98.2537372,227.09054 C89.7537372,227.65054 81.8337372,223.69054 77.4337372,216.62054 L3.48373719,97.8705401 C-3.44626281,86.7505401 0.283737195,71.5005401 11.8237372,63.8305401 C23.3437372,56.1705401 38.2937372,58.9705401 45.2237372,70.0905401 L96.5037372,152.52054 L164.173737,14.7005401 C170.243737,2.33054008 184.833737,-3.33945992 196.753737,2.02054008 C208.663737,7.39054008 213.403737,21.7505401 207.343737,34.1105401 L119.893737,212.36054 C115.893737,220.52054 107.933737,226.13054 99.1137372,227.02054 C98.8237372,227.05054 98.5437372,227.07054 98.2537372,227.09054" id="Fill-27" fill="url(#linearGradient-15)" mask="url(#mask-14)"></path>
        </g>
        <g id="Group-32" transform="translate(863.3867, 1602.6344)">
            <mask id="mask-17" fill="white">
                <use xlink:href="#path-16"></use>
            </mask>
            <g id="Clip-31"></g>
            <path d="M8.64329629,348.988054 C4.03229629,348.988054 0.227296288,345.325612 0.0852962878,340.685612 C-0.00870371223,337.575612 -1.98770371,263.525612 19.8122963,184.445612 C49.1772963,77.9456122 108.068296,14.8156122 190.123296,1.90561217 C230.323296,-4.43438783 266.153296,5.06561217 296.613296,30.1056122 C395.873296,111.755612 405.313296,330.815612 405.673296,340.095612 C405.853296,344.825612 402.163296,348.805612 397.433296,348.988054 C392.673296,349.095612 388.733296,345.475612 388.553296,340.745612 C388.463296,338.555612 379.043296,120.075612 285.713296,43.3256122 C259.203296,21.5356122 227.943296,13.2856122 192.783296,18.8256122 C10.4102963,47.5356122 17.1222963,337.235612 17.2122963,340.165612 C17.3562963,344.895612 13.6382963,348.845612 8.90929629,348.988054 L8.64329629,348.988054" id="Fill-30" fill="url(#linearGradient-18)" mask="url(#mask-17)"></path>
        </g>
        <g id="Group-35" transform="translate(510.6513, 1865.19)">
            <mask id="mask-20" fill="white">
                <use xlink:href="#path-19"></use>
            </mask>
            <g id="Clip-34"></g>
            <path d="M0.527711819,1024.41 L147.730712,9.3 L700.718712,0 L878.948712,1080.83 L48.4107118,1080.83 C18.8677118,1080.83 -3.78328818,1054.14 0.527711819,1024.41" id="Fill-33" fill="url(#linearGradient-21)" mask="url(#mask-20)"></path>
        </g>
        <g id="Group-38" transform="translate(1211.37, 1865.19)">
            <mask id="mask-23" fill="white">
                <use xlink:href="#path-22"></use>
            </mask>
            <g id="Clip-37"></g>
            <path d="M107.39,9.3 L0,0 L178.23,1080.83 L284.85,1080.83 C306.47,1080.83 322.62,1060.63 318.22,1039.1 L107.39,9.3" id="Fill-36" fill="url(#linearGradient-24)" mask="url(#mask-23)"></path>
        </g>
        <g id="Group-41" transform="translate(744.5621, 1600.3083)">
            <mask id="mask-26" fill="white">
                <use xlink:href="#path-25"></use>
            </mask>
            <g id="Clip-40"></g>
            <path d="M397.107937,348.991687 C392.527937,348.991687 388.727937,345.371687 388.547937,340.751687 C388.467937,338.551687 379.037937,120.071687 285.707937,43.3316873 C259.207937,21.5416873 227.947937,13.2916873 192.786937,18.8316873 C10.5549371,47.5116873 17.1239371,337.241687 17.2119371,340.161687 C17.3529371,344.891687 13.6369371,348.841687 8.90793712,348.981687 C4.12793712,349.181687 0.230937119,345.411687 0.0849371195,340.681687 C-0.00806288054,337.571687 -1.98806288,263.521687 19.8139371,184.451687 C49.1769371,77.9416873 108.068937,14.8216873 190.123937,1.90168731 C230.330937,-4.42831269 266.157937,5.06168731 296.607937,30.1116873 C395.877937,111.761687 405.317937,330.811687 405.667937,340.101687 C405.847937,344.831687 402.167937,348.801687 397.437937,348.981687 C397.327937,348.991687 397.217937,348.991687 397.107937,348.991687" id="Fill-39" fill="url(#linearGradient-27)" mask="url(#mask-26)"></path>
        </g>
        <g id="Group-44" transform="translate(2611.2578, 3164.24)">
            <mask id="mask-29" fill="white">
                <use xlink:href="#path-28"></use>
            </mask>
            <g id="Clip-43"></g>
            <path d="M5.97219324,0 C42.2121932,3.13 105.092193,8.22 154.672193,10.4 C184.472193,11.71 201.632193,8.8 211.512193,4.84 C211.492193,5.95 211.462193,7.01 211.422193,7.98 C211.192193,13.2 206.952193,17.37 201.682193,17.67 C108.002193,22.9 33.4921932,19.48 6.97219324,17.86 C1.49219324,17.53 -1.77780676,11.57 1.02219324,6.89 C2.43219324,4.55 4.12219324,2.26 5.97219324,0" id="Fill-42" fill="url(#linearGradient-30)" mask="url(#mask-29)"></path>
        </g>
        <g id="Group-47" transform="translate(2617.23, 3091.07)">
            <mask id="mask-32" fill="white">
                <use xlink:href="#path-31"></use>
            </mask>
            <g id="Clip-46"></g>
            <path d="M148.7,83.57 C99.12,81.39 36.24,76.3 4.54747351e-13,73.17 C35.63,29.46 148.7,0 148.7,0 L180.64,0 C202.6,31.66 205.78,61.81 205.54,78.01 C195.66,81.97 178.5,84.88 148.7,83.57" id="Fill-45" fill="url(#linearGradient-33)" mask="url(#mask-32)"></path>
        </g>
        <g id="Group-50" transform="translate(2743.67, 3038.94)">
            <mask id="mask-35" fill="white">
                <use xlink:href="#path-34"></use>
            </mask>
            <g id="Clip-49"></g>
            <path d="M59.57,0 L56.58,59.14 C56.26,65.54 51.47,70.92 45.05,71.84 C38.67,72.75 30.13,72.87 21.06,69.85 C15.49,67.99 11.35,63.3 10.32,57.57 L0,0 L59.57,0" id="Fill-48" fill="url(#linearGradient-36)" mask="url(#mask-35)"></path>
        </g>
        <g id="Group-53" transform="translate(3119.24, 3207.8)">
            <mask id="mask-38" fill="white">
                <use xlink:href="#path-37"></use>
            </mask>
            <g id="Clip-52"></g>
            <path d="M54.66,24.66 C70.37,21.83 77.48,11.28 80.47,0 C80.48,0.1 80.5,0.2 80.52,0.3 C82.84,12.2 77.48,24.53 66.76,30.4 C53.81,37.48 39.65,38.69 28.66,38.11 C16.86,37.48 6.04,31.17 0.09,21.08 L4.54747351e-13,20.92 C11.84,28.49 28.46,29.39 54.66,24.66" id="Fill-51" fill="url(#linearGradient-39)" mask="url(#mask-38)"></path>
        </g>
        <g id="Group-56" transform="translate(3080.7335, 3057.1523)">
            <mask id="mask-41" fill="white">
                <use xlink:href="#path-40"></use>
            </mask>
            <g id="Clip-55"></g>
            <path d="M19.0765317,0.00765219891 L45.4165317,0.00765219891 C85.5365317,-1.0523478 110.726532,108.297652 118.976532,150.647652 C115.986532,161.927652 108.876532,172.477652 93.1665317,175.307652 C66.9665317,180.037652 50.3465317,179.137652 38.5065317,171.567652 C16.8365317,134.707652 6.08653174,80.7276522 0.926531741,49.2176522 C-4.95346826,13.3876522 19.0765317,0.00765219891 19.0765317,0.00765219891" id="Fill-54" fill="url(#linearGradient-42)" mask="url(#mask-41)"></path>
        </g>
        <g id="Group-59" transform="translate(3066.66, 3002.26)">
            <mask id="mask-44" fill="white">
                <use xlink:href="#path-43"></use>
            </mask>
            <g id="Clip-58"></g>
            <path d="M56.11,0 L70.73,58.17 C72.52,65.3 69.11,72.68 62.52,76.06 C54.34,80.26 42.82,84.67 32.23,83.4 C27.25,82.8 23.12,79.29 21.47,74.6 L0,13.4 L56.11,0" id="Fill-57" fill="url(#linearGradient-45)" mask="url(#mask-44)"></path>
        </g>
        <g id="Group-62" transform="translate(2608.31, 2219.68)">
            <mask id="mask-47" fill="white">
                <use xlink:href="#path-46"></use>
            </mask>
            <g id="Clip-61"></g>
            <path d="M4.54747351e-13,16.5 C4.54747351e-13,16.5 130.69,833.43 128.54,837.92 C128.54,837.92 164.63,854.33 203.98,840.02 C203.98,840.02 192.17,403.31 164.47,235.86 C164.47,235.86 387.52,626.19 458.35,820.69 C458.35,820.69 495.29,816.28 525.87,796.16 C525.87,796.16 285.72,93.58 221.64,0 L4.54747351e-13,16.5" id="Fill-60" fill="url(#linearGradient-48)" mask="url(#mask-47)"></path>
        </g>
        <g id="Group-65" transform="translate(2678.9234, 2358.3238)">
            <mask id="mask-50" fill="white">
                <use xlink:href="#path-49"></use>
            </mask>
            <g id="Clip-64"></g>
            <path d="M88.6465617,92.9661652 C89.3465617,92.9661652 90.0465617,92.7761652 90.6865617,92.3761652 C92.4965357,91.2461652 93.0365617,88.8661652 91.9065617,87.0561652 L43.0765617,9.0461652 C42.5065617,8.1461652 41.5965617,7.5161652 40.5665617,7.3061652 L4.61656172,0.0761652036 C2.51656172,-0.343834796 0.496561715,1.0161652 0.0765617151,3.0961652 C-0.343438285,5.1861652 1.00656172,7.2261652 3.09656172,7.6461652 L37.4065617,14.5461652 L85.3665617,91.1461652 C86.0965617,92.3161652 87.3565617,92.9661652 88.6465617,92.9661652" id="Fill-63" fill="url(#linearGradient-51)" mask="url(#mask-50)"></path>
        </g>
        <g id="Group-68" transform="translate(2007.6403, 1436.22)">
            <mask id="mask-53" fill="white">
                <use xlink:href="#path-52"></use>
            </mask>
            <g id="Clip-67"></g>
            <path d="M0.92968062,-4.54747351e-13 C0.92968062,-4.54747351e-13 89.1196806,19.45 142.759681,44.22 C153.409681,49.14 161.909681,57.74 166.749681,68.34 C182.789681,103.48 230.789681,191.6 323.869681,233.65 C310.459681,251.44 288.879681,288.45 279.479681,350.65 C223.569681,309.04 175.309681,239.55 152.139681,125.59 C152.139681,125.59 134.489681,135.18 112.479681,124.49 C100.849681,118.84 87.4296806,110.83 77.3496806,104.53 C67.2996806,98.26 59.8196806,88.5 56.9196806,77.1 C53.0796806,62.05 55.3396806,48.82 55.3396806,34.62 L10.0096806,20.57 C10.0096806,20.57 -3.62031938,15.43 0.92968062,-4.54747351e-13" id="Fill-66" fill="url(#linearGradient-54)" mask="url(#mask-53)"></path>
        </g>
        <g id="Group-71" transform="translate(2287.12, 1663.8487)">
            <mask id="mask-56" fill="white">
                <use xlink:href="#path-55"></use>
            </mask>
            <g id="Clip-70"></g>
            <path d="M0,123.021313 C9.4,60.8213128 30.98,23.8113128 44.39,6.02131283 C102.21,32.1513128 177.43,40.5013128 273.21,7.31131283 C282.04,4.25131283 291.25,2.46131283 300.58,1.91131283 C351.57,-1.07868717 519.6,-6.53868717 658.64,39.4013128 C687.9,49.0713128 711.6,70.7013128 723.81,98.7313128 C761.42,185.041313 822.31,381.601313 653.27,480.841313 C640.28,448.601313 625.29,422.681313 612.48,403.631313 C639.7,357.721313 647.76,295.001313 599.45,213.331313 C564.23,308.451313 547.7,447.231313 544.25,508.651313 C543.11,528.871313 546.66,549.061313 554.59,567.721313 L555.46,569.761313 C557.16,573.761313 554.82,578.351313 550.55,579.311313 C455.39,600.681313 356.41,594.881313 326.84,592.431313 C321.56,592.001313 317.17,588.221313 315.96,583.121313 C269.69,388.131313 269.58,255.121313 280.91,171.041313 C237.62,180.721313 105.25,201.361313 0,123.021313" id="Fill-69" fill="url(#linearGradient-57)" mask="url(#mask-56)"></path>
        </g>
        <g id="Group-74" transform="translate(2563.9762, 1712.5863)">
            <mask id="mask-59" fill="white">
                <use xlink:href="#path-58"></use>
            </mask>
            <g id="Clip-73"></g>
            <path d="M3.86381254,127.553743 C5.77381254,127.553743 7.43381254,126.133743 7.69381254,124.193743 C18.5538125,42.1037427 40.6938125,6.27374267 40.9038125,5.92374267 C42.0438125,4.12374267 41.5138125,1.73374267 39.7138125,0.593742669 C37.9138125,-0.536257331 35.5338125,-0.00625733129 34.3938125,1.78374267 C33.4438125,3.27374267 11.1638125,39.1437427 0.0338125371,123.183743 C-0.246187463,125.293743 1.24381254,127.233743 3.35381254,127.513743 C3.53381254,127.543743 3.69381254,127.553743 3.86381254,127.553743" id="Fill-72" fill="url(#linearGradient-60)" mask="url(#mask-59)"></path>
        </g>
        <g id="Group-77" transform="translate(2707.9513, 1552.17)">
            <mask id="mask-62" fill="white">
                <use xlink:href="#path-61"></use>
            </mask>
            <g id="Clip-76"></g>
            <path d="M94.7386826,0 C94.7386826,0 104.368683,101.79 112.848683,131.9 C114.128683,136.47 112.148683,141.29 107.998683,143.66 C93.6086826,151.88 59.1086826,165.29 11.9086826,142.16 C4.25868261,138.41 -0.331317387,130.44 0.0186826126,122 L4.17868261,23.64 L94.7386826,0" id="Fill-75" fill="url(#linearGradient-63)" mask="url(#mask-62)"></path>
        </g>
        <g id="Group-80" transform="translate(2675.2507, 1421.95)">
            <mask id="mask-65" fill="white">
                <use xlink:href="#path-64"></use>
            </mask>
            <g id="Clip-79"></g>
            <path d="M34.799273,0 C34.799273,0 4.00927302,70.73 1.93927302,107.86 C-0.120726977,144.99 -8.12072698,169.08 34.799273,176.55 C77.729273,184.03 113.889273,162.64 133.489273,125.66 C133.489273,125.66 164.179273,68.68 157.299273,45.34 C150.409273,22 34.799273,0 34.799273,0" id="Fill-78" fill="url(#linearGradient-66)" mask="url(#mask-65)"></path>
        </g>
        <g id="Group-83" transform="translate(2670.155, 1344.7362)">
            <mask id="mask-68" fill="white">
                <use xlink:href="#path-67"></use>
            </mask>
            <g id="Clip-82"></g>
            <path d="M123.914982,176.283803 L121.464982,175.213803 C118.354982,173.833803 117.024982,170.133803 118.584982,167.113803 C124.644982,155.423803 136.444982,128.613803 121.194982,122.363803 C101.554982,114.303803 23.7249817,98.4338032 6.93498171,70.8238032 C-9.20501829,44.2838032 5.09498171,10.0238032 26.5849817,0.283803173 C28.0249817,-0.376196827 29.7249817,0.143803173 30.4549817,1.54380317 L32.2449817,4.93380317 C33.4749817,7.25380317 36.9049817,6.89380317 37.6349817,4.37380317 C38.3249817,1.95380317 41.5449817,1.49380317 42.8849817,3.62380317 C48.0449817,11.8838032 61.9749817,25.2838032 99.2449817,32.1538032 C152.194982,41.9338032 187.214982,63.3638032 188.084982,99.9538032 C188.134982,102.283803 190.614982,103.573803 192.594982,102.363803 C196.504982,99.9838032 202.764982,98.8638032 211.124982,105.893803 C225.674982,118.123803 219.724982,149.843803 187.834982,175.943803 C186.324982,177.183803 186.334982,179.543803 187.974982,180.613803 C193.754982,184.373803 202.374982,193.333803 180.044982,205.263803 C156.954982,217.613803 139.704982,216.593803 133.064982,215.503803 C131.414982,215.233803 130.354982,213.633803 130.714982,211.993803 L137.804982,179.833803 C138.204982,178.013803 136.814982,176.283803 134.954982,176.283803 L123.914982,176.283803" id="Fill-81" fill="url(#linearGradient-69)" mask="url(#mask-68)"></path>
        </g>
        <g id="Group-86" transform="translate(2792.73, 1493.0519)">
            <mask id="mask-71" fill="white">
                <use xlink:href="#path-70"></use>
            </mask>
            <g id="Clip-85"></g>
            <path d="M0,34.7580641 C0,34.7580641 11.75,-10.4219359 32.01,2.23806412 C52.27,14.9080641 21.5,52.8680641 5.21,54.5580641 L0,34.7580641" id="Fill-84" fill="url(#linearGradient-72)" mask="url(#mask-71)"></path>
        </g>
        <g id="Group-89" transform="translate(2079.9289, 1479.4535)">
            <mask id="mask-74" fill="white">
                <use xlink:href="#path-73"></use>
            </mask>
            <g id="Clip-88"></g>
            <path d="M56.3310804,71.8464825 C57.1810804,71.8464825 58.0510804,71.5664825 58.7610804,70.9764825 C60.4110804,69.6364825 60.6610804,67.2064825 59.3210804,65.5464825 C55.9810804,61.4464825 26.3910804,25.2664825 14.9910804,18.8264825 C10.8410804,16.4764825 8.37108042,14.0564825 7.84108042,11.8264825 C7.59108042,10.7564825 7.76108042,9.5564825 8.36108042,8.1964825 L43.1310804,15.1664825 L62.8310804,32.0664825 C64.4410804,33.4564825 66.8910804,33.2764825 68.2710804,31.6564825 C69.6610804,30.0364825 69.4810804,27.5964825 67.8610804,26.2064825 L47.3910804,8.6464825 C46.8910804,8.2164825 46.2910804,7.9264825 45.6410804,7.7864825 L7.14108042,0.0764825026 C5.60108042,-0.233517497 4.05108042,0.416482503 3.18108042,1.7064825 C0.361080419,5.8864825 -0.568919581,9.7864825 0.331080419,13.5964825 C1.39108042,18.1064825 4.94108042,22.0164825 11.1910804,25.5464825 C19.7710804,30.3864825 44.5210804,59.5864825 53.3310804,70.4264825 C54.0910804,71.3564825 55.2110804,71.8464825 56.3310804,71.8464825" id="Fill-87" fill="url(#linearGradient-75)" mask="url(#mask-74)"></path>
        </g>
        <g id="Group-92" transform="translate(2658.12, 2067.48)">
            <mask id="mask-77" fill="white">
                <use xlink:href="#path-76"></use>
            </mask>
            <g id="Clip-91"></g>
            <path d="M136.11,126.13 L0,127.81 L47.64,82.97 C59.48,71.83 77.55,70.02 91.22,78.89 C99.22,84.08 107.9,91.12 115.42,100.45 C115.42,100.45 200.32,69.43 241.48,0 C254.29,19.05 269.28,44.97 282.27,77.21 C245.38,98.87 197.55,115.9 136.11,126.13" id="Fill-90" fill="url(#linearGradient-78)" mask="url(#mask-77)"></path>
        </g>
        <g id="Group-95" transform="translate(2417.83, 2180.2076)">
            <mask id="mask-80" fill="white">
                <use xlink:href="#path-79"></use>
            </mask>
            <g id="Clip-94"></g>
            <path d="M361.730011,30.9523734 C361.470011,30.9723734 361.210011,30.9723734 360.940011,30.9723734 L15.4500108,30.6023734 C6.91001082,30.5923734 -0.00998917549,23.7323734 0,15.2823734 C0.0100108245,6.83237339 6.97001082,-0.147626611 15.4800108,0.00237338944 L360.970011,0.372373389 C369.510011,0.382373389 376.430011,7.24237339 376.420022,15.6923734 C376.410011,23.8723734 369.900011,30.5523734 361.730011,30.9523734" id="Fill-93" fill="url(#linearGradient-81)" mask="url(#mask-80)"></path>
        </g>
        <g id="Group-98" transform="translate(2099.699, 1900.79)">
            <mask id="mask-83" fill="white">
                <use xlink:href="#path-82"></use>
            </mask>
            <g id="Clip-97"></g>
            <path d="M23.0010082,0 L310.721008,0 C331.951008,0 351.271008,12.12 360.321008,31.12 L493.341008,310.19 L135.771008,310.19 C122.091008,310.19 109.801008,301.92 104.781008,289.33 L1.63100817,31.09 C-4.32899183,16.17 6.78100817,0 23.0010082,0" id="Fill-96" fill="url(#linearGradient-84)" mask="url(#mask-83)"></path>
        </g>
        <g id="Group-101" transform="translate(2279.4677, 2015.3679)">
            <mask id="mask-86" fill="white">
                <use xlink:href="#path-85"></use>
            </mask>
            <g id="Clip-100"></g>
            <path d="M45.942261,28.5121316 C52.172261,47.6821316 47.562261,66.2921316 35.652261,70.0921316 C23.732261,73.8821316 9.01226104,61.4221316 2.78226104,42.2621316 C-3.45773896,23.0921316 1.15226104,4.47213162 13.072261,0.682131621 C24.982261,-3.11786838 39.702261,9.34213162 45.942261,28.5121316" id="Fill-99" fill="url(#linearGradient-87)" mask="url(#mask-86)"></path>
        </g>
    </g>
</svg>